<svg width="512" height="512" viewBox="0 0 512 512" fill="none" xmlns="http://www.w3.org/2000/svg">
<path d="M149.17 293.23C149.227 293.22 149.277 293.188 149.311 293.142C149.345 293.095 149.359 293.037 149.35 292.98C138.42 227.27 128.16 161.35 115.88 95.87C114.99 91.17 111.49 90.05 106.93 90.05C96.7367 90.0567 86.5434 90.05 76.35 90.03C71.4834 90.0167 67.9767 89.5667 65.83 88.68C56.87 84.98 53.04 74.35 57.2 65.55C60.2667 59.07 65.7 55.8333 73.5 55.84C85.2134 55.8533 96.9234 55.8767 108.63 55.91C125.84 55.95 140.82 66.05 147.12 81.81C150 89.01 151.32 99.75 152.95 108.47C152.971 108.567 153.022 108.654 153.095 108.716C153.168 108.778 153.258 108.811 153.35 108.81C248.37 108.79 343.42 108.737 438.5 108.65C447.3 108.65 454.99 114.57 456.33 123.31C456.623 125.223 456.44 128.173 455.78 132.16C446.1 190.087 436.42 248.013 426.74 305.94C425.647 312.48 424.377 316.867 422.93 319.1C418.71 325.66 412.7 326.76 404.67 326.76C322.03 326.74 239.39 326.733 156.75 326.74C146.53 326.74 139.52 336.45 143.89 345.82C146.92 352.31 152.32 353.51 159.51 353.51C239.003 353.497 318.5 353.52 398 353.58C416.81 353.6 422.49 379.12 405.25 386.22C402.877 387.2 398.963 387.69 393.51 387.69C314.17 387.69 234.833 387.687 155.5 387.68C138.98 387.68 123.27 378.23 114.98 364.01C97.64 334.29 116.19 298.95 149.17 293.23Z" fill="white"/>
<path d="M352.28 455.8C366.391 455.8 377.83 444.361 377.83 430.25C377.83 416.139 366.391 404.7 352.28 404.7C338.169 404.7 326.73 416.139 326.73 430.25C326.73 444.361 338.169 455.8 352.28 455.8Z" fill="white"/>
<path d="M193.4 456.1C207.511 456.1 218.95 444.661 218.95 430.55C218.95 416.439 207.511 405 193.4 405C179.289 405 167.85 416.439 167.85 430.55C167.85 444.661 179.289 456.1 193.4 456.1Z" fill="white"/>
</svg>
