<svg width="512" height="512" viewBox="0 0 512 512" fill="none" xmlns="http://www.w3.org/2000/svg">
<path d="M512 111.14V113.79C511.267 124.79 507.09 134.1 499.47 141.72C406.137 235.093 312.79 328.453 219.43 421.8C212.71 428.52 207.67 432.843 204.31 434.77C189.1 443.46 168.53 441.32 155.96 428.76C107.9 380.747 59.8633 332.71 11.85 284.65C4.63 277.423 0.68 268.28 0 257.22V254.66C0.446667 249.02 1.48 244.32 3.1 240.56C14.92 213.07 49.22 207.23 70.26 228.24C108.2 266.127 146.1 304.007 183.96 341.88C183.994 341.915 184.036 341.944 184.081 341.963C184.127 341.982 184.176 341.992 184.225 341.992C184.274 341.992 184.323 341.982 184.369 341.963C184.414 341.944 184.456 341.915 184.49 341.88C270.41 255.953 356.353 170.017 442.32 84.07C467.92 58.47 509.84 75.57 512 111.14Z" fill="#353535"/>
</svg>
