<svg width="512" height="512" viewBox="0 0 512 512" fill="none" xmlns="http://www.w3.org/2000/svg">
<path d="M29.59 0H34.8C42.8867 0.913333 50.0067 4.44333 56.16 10.59C117.993 72.4033 179.813 134.223 241.62 196.05C245.107 199.537 247.877 201.763 249.93 202.73C259.44 207.22 265.14 201.32 272.38 194.07C333.733 132.697 395.087 71.32 456.44 9.94C462.18 4.2 469.127 0.886667 477.28 0H482.5C499.533 2.68667 509.367 12.5567 512 29.61V34.77C511.073 42.91 507.63 49.96 501.67 55.92C439.223 118.367 376.773 180.813 314.32 243.26C308.91 248.67 306.08 254.07 308.87 261.29C309.703 263.457 311.7 266.12 314.86 269.28C377.213 331.633 439.567 393.983 501.92 456.33C507.76 462.17 511.12 469.157 512 477.29V482.58C509.28 499.553 499.417 509.36 482.41 512H477.22C466.45 510.81 460.39 505.98 453.08 498.67C391.673 437.237 330.257 375.813 268.83 314.4C266.41 311.973 264.533 310.397 263.2 309.67C258.35 307.01 252 307.38 247.47 310.47C246.703 311.003 244.64 312.95 241.28 316.31C179.413 378.177 117.54 440.043 55.66 501.91C49.8 507.763 42.79 511.127 34.63 512H29.64C12.54 509.353 2.66 499.497 0 482.43V477.15C0.92 469.097 4.37 462.08 10.35 456.1C72.4033 394.033 134.46 331.977 196.52 269.93C199.833 266.617 201.957 263.893 202.89 261.76C206.98 252.41 201.42 246.96 194.32 239.86C132.947 178.507 71.58 117.147 10.22 55.78C4.33333 49.8867 0.926667 42.9167 0 34.87V29.4C2.74 12.44 12.6033 2.64 29.59 0Z" fill="#7A7A7A"/>
</svg>
