<svg width="458" height="512" viewBox="0 0 458 512" fill="none" xmlns="http://www.w3.org/2000/svg">
<path d="M53.61 0H308.36C338.81 2.21 361.66 25.67 361.71 56.25C361.75 78.5633 361.76 100.88 361.74 123.2C361.73 130.48 360.47 136.54 354.93 140.7C342.56 149.99 325.07 141.83 325.07 126.25C325.07 102.837 325.067 79.42 325.06 56C325.06 45.11 316.63 36.77 305.75 36.77C233.043 36.73 160.49 36.6967 88.09 36.67C87.3433 36.67 87.2933 36.8567 87.94 37.23C121.68 56.6767 155.487 76.19 189.36 95.77C197.707 100.597 203.293 104.21 206.12 106.61C215.267 114.37 221.19 124.18 223.89 136.04C224.83 140.173 225.3 146.353 225.3 154.58C225.307 234.213 225.307 313.803 225.3 393.35C225.3 393.464 225.345 393.573 225.426 393.654C225.507 393.735 225.616 393.78 225.73 393.78C251.39 393.787 276.973 393.787 302.48 393.78C307.027 393.78 310.48 393.327 312.84 392.42C322.05 388.88 325.04 381.36 325.06 371.77C325.093 354.883 325.087 337.993 325.04 321.1C325.027 313.847 325.437 308.99 326.27 306.53C331.74 290.36 355.6 290.6 360.8 306.94C361.44 308.94 361.757 312.677 361.75 318.15C361.75 333.683 361.75 349.217 361.75 364.75C361.757 374.43 361.443 381.08 360.81 384.7C356.1 411.72 332.14 430.39 305 430.43C278.58 430.47 252.147 430.487 225.7 430.48C225.589 430.48 225.482 430.524 225.403 430.603C225.324 430.682 225.28 430.789 225.28 430.9C225.37 443.34 226.27 458.56 223.82 469.26C218.3 493.33 197.06 509.82 172.67 512H166.17C157.27 511.207 148.83 508.507 140.85 503.9C105.917 483.72 70.98 463.543 36.04 443.37C27.72 438.57 22.1333 434.957 19.28 432.53C10.1933 424.79 4.31333 415.023 1.64 403.23C0.699997 399.103 0.229997 392.91 0.229997 384.65C0.22333 275.263 0.209998 165.88 0.189998 56.5C0.179998 25.82 23.06 2.25 53.61 0Z" fill="white"/>
<path d="M394.79 233.57C349.897 233.477 304.967 233.447 260 233.48C235.69 233.5 235.69 196.82 260.5 196.83C305.167 196.85 349.75 196.863 394.25 196.87C394.91 196.87 395.007 196.637 394.54 196.17C388.72 190.403 382.853 184.537 376.94 178.57C374.047 175.65 372.16 173.243 371.28 171.35C364.3 156.25 380.29 139.92 395.36 147.03C397.713 148.137 401.26 151.067 406 155.82C420.627 170.48 435.267 185.123 449.92 199.75C456.48 206.3 460.21 213.31 456.37 222.14C455.277 224.667 452.51 228.143 448.07 232.57C433.503 247.123 418.943 261.68 404.39 276.24C400.81 279.827 398.163 282.077 396.45 282.99C381.47 290.99 364.26 275.13 371.14 259.6C372.213 257.187 374.743 254.003 378.73 250.05C384.143 244.677 389.537 239.283 394.91 233.87C394.934 233.844 394.951 233.812 394.957 233.777C394.964 233.742 394.961 233.706 394.948 233.674C394.935 233.642 394.913 233.615 394.885 233.596C394.857 233.578 394.824 233.569 394.79 233.57Z" fill="white"/>
</svg>
