<?xml version="1.0" encoding="UTF-8" standalone="no"?>
<!DOCTYPE svg PUBLIC "-//W3C//DTD SVG 1.1//EN" "http://www.w3.org/Graphics/SVG/1.1/DTD/svg11.dtd">
<svg xmlns="http://www.w3.org/2000/svg" version="1.1" viewBox="0.00 0.00 512.00 512.00">
<path fill="#000000" d="
  M 512.00 253.38
  L 512.00 258.61
  Q 510.85 269.60 504.93 276.93
  Q 485.04 301.54 457.34 327.35
  C 417.33 364.64 369.12 397.69 315.98 412.85
  Q 256.26 429.90 196.52 412.97
  C 148.82 399.46 105.31 371.58 68.15 339.36
  Q 36.94 312.30 10.31 280.77
  C 4.19 273.52 1.03 267.74 0.00 258.87
  L 0.00 253.19
  Q 1.22 242.31 9.08 232.82
  C 57.32 174.52 122.51 120.83 196.06 99.43
  Q 261.45 80.40 325.87 102.28
  C 355.41 112.31 383.13 127.22 408.57 145.23
  Q 464.95 185.15 505.51 236.00
  Q 510.86 242.70 512.00 253.38
  Z
  M 366.32 256.04
  A 110.32 110.32 0.0 0 0 256.00 145.72
  A 110.32 110.32 0.0 0 0 145.68 256.04
  A 110.32 110.32 0.0 0 0 256.00 366.36
  A 110.32 110.32 0.0 0 0 366.32 256.04
  Z"
/>
<circle fill="#000000" cx="256.00" cy="256.04" r="78.82"/>
</svg>
